<svg version="1.2" xmlns="http://www.w3.org/2000/svg" viewBox="0 0 124 106" width="124" height="106"><style>.a{fill:#444}.b{stroke:#444}.c{fill:#444;stroke:#444}</style><path class="a" d="m22.6 92.4v-81.3h4v81.3z"/><path class="b" d="m26.6 92.4h80.3"/><path class="b" d="m26.6 76.1h80.3"/><path class="b" d="m26.6 59.9h80.3"/><path class="b" d="m26.6 43.6h80.3"/><path class="b" d="m26.6 27.4h80.3"/><path class="b" d="m26.6 11.1h80.3"/><path class="b" d="m26.6 92.4v-81.3"/><path class="b" d="m42.6 92.4v-81.3"/><path class="b" d="m58.7 92.4v-81.3"/><path class="b" d="m74.8 92.4v-81.3"/><path class="b" d="m90.9 92.4v-81.3"/><path class="b" d="m106.9 92.4v-81.3"/><path class="c" d="m71.6 60.6c0 2.7-2.2 4.9-4.9 4.9-2.7 0-4.9-2.2-4.9-4.9 0-2.7 2.2-4.8 4.9-4.8 2.7 0 4.9 2.1 4.9 4.8z"/><path class="c" d="m71.6 28.1c0 2.7-2.2 4.9-4.8 4.9-2.7 0-4.9-2.2-4.9-4.9 0-2.7 2.2-4.8 4.9-4.8 2.6 0 4.8 2.1 4.8 4.8z"/><path class="a" d="m30.6 77.8v-67c0-1.7 1.7-3.2 3.9-3.2h0.2c2.2 0 3.9 1.5 3.9 3.2v67c0 1.7-1.7 3.2-3.9 3.2h-0.2c-2.2 0-3.9-1.5-3.9-3.2z"/></svg>