<svg version="1.2" xmlns="http://www.w3.org/2000/svg" viewBox="0 0 124 106" width="124" height="106"><style>tspan{white-space:pre}.a{stroke:#444}.b{fill:#444;stroke:#444}.c{fill:#444}.d{font-size: 27px;fill: #444444;font-weight: 700;font-family: "LexendTera-Bold", "Lexend Tera"}</style><path class="a" d="m26.6 92.4h80.3"/><path class="a" d="m26.6 76.1h80.3"/><path class="a" d="m26.6 59.9h80.3"/><path class="a" d="m26.6 43.6h80.3"/><path class="a" d="m26.6 27.4h80.3"/><path class="a" d="m26.6 11.1h80.3"/><path class="a" d="m26.6 92.4v-81.3"/><path class="a" d="m42.6 92.4v-81.3"/><path class="a" d="m58.7 92.4v-81.3"/><path class="a" d="m74.8 92.4v-81.3"/><path class="a" d="m90.9 92.4v-81.3"/><path class="a" d="m106.9 92.4v-81.3"/><path class="b" d="m71.6 11.4c0 2.7-2.2 4.8-4.9 4.8-2.7 0-4.9-2.1-4.9-4.8 0-2.7 2.2-4.9 4.9-4.9 2.7 0 4.9 2.2 4.9 4.9z"/><path class="b" d="m71.6 75.9c0 2.7-2.2 4.9-4.8 4.9-2.7 0-4.9-2.2-4.9-4.9 0-2.7 2.2-4.9 4.9-4.9 2.6 0 4.8 2.2 4.8 4.9z"/><path class="c" d="m30.6 92.2v-79.8c0-2.6 1.7-4.8 3.9-4.8h0.2c2.2 0 3.9 2.2 3.9 4.8v79.8c0 2.7-1.7 4.8-3.9 4.8h-0.2c-2.2 0-3.9-2.1-3.9-4.8z"/><text style="transform:matrix(1,0,0,1,3.467,78.573);paint-order:stroke fill markers;stroke:#444;stroke-width: 0;stroke-linejoin: round;" ><tspan x="0" y="0" class="d">6
</tspan></text></svg>