<svg version="1.2" xmlns="http://www.w3.org/2000/svg" viewBox="0 0 130 150" width="130" height="150"><style>.a{fill:#444}.b{stroke:#444}.c{fill:#444;stroke:#444}</style><path class="a" d="m27.6 34.6h81.3v4h-81.3z"/><path class="b" d="m27.6 38.6v80.3"/><path class="b" d="m43.9 38.6v80.3"/><path class="b" d="m60.1 38.6v80.3"/><path class="b" d="m76.4 38.6v80.3"/><path class="b" d="m92.6 38.6v80.3"/><path class="b" d="m108.9 38.6v80.3"/><path class="b" d="m27.6 38.6h81.3"/><path class="b" d="m27.6 54.6h81.3"/><path class="b" d="m27.6 70.7h81.3"/><path class="b" d="m27.6 86.8h81.3"/><path class="b" d="m27.6 102.9h81.3"/><path class="b" d="m27.6 118.9h81.3"/><path class="c" d="m60.1 99.6c-2.7 0-4.9-2.2-4.9-4.8 0-2.7 2.2-4.9 4.9-4.9 2.7 0 4.9 2.2 4.9 4.9 0 2.6-2.2 4.8-4.9 4.8z"/><path class="c" d="m92.1 83.6c-2.7 0-4.9-2.2-4.9-4.8 0-2.7 2.2-4.9 4.9-4.9 2.7 0 4.9 2.2 4.9 4.9 0 2.6-2.2 4.8-4.9 4.8z"/><path class="a" d="m28 58.6h80.5c2.1 0 3.9 1.7 3.9 3.9v0.2c0 2.2-1.8 3.9-3.9 3.9h-80.5c-2.1 0-3.9-1.7-3.9-3.9v-0.2c0-2.2 1.8-3.9 3.9-3.9z"/></svg>