<svg version="1.2" xmlns="http://www.w3.org/2000/svg" viewBox="0 0 124 106" width="124" height="106"><style>tspan{white-space:pre}.a{stroke:#444}.b{fill:#444;stroke:#444}.c{fill:#fff;stroke:#444}.d{font-size: 13px;fill: #444444;font-weight: 400;font-family: "LiberationSans", "Liberation Sans"}.e{fill:#444}</style><path class="a" d="m26.6 92.4h80.3"/><path class="a" d="m26.6 76.1h80.3"/><path class="a" d="m26.6 59.9h80.3"/><path class="a" d="m26.6 43.6h80.3"/><path class="a" d="m26.6 27.4h80.3"/><path class="a" d="m26.6 11.1h80.3"/><path class="a" d="m26.6 92.4v-81.3"/><path class="a" d="m42.6 92.4v-81.3"/><path class="a" d="m58.7 92.4v-81.3"/><path class="a" d="m74.8 92.4v-81.3"/><path class="a" d="m90.9 92.4v-81.3"/><path class="a" d="m106.9 92.4v-81.3"/><path class="b" d="m71.6 27.4c0 2.7-2.2 4.8-4.9 4.8-2.7 0-4.9-2.1-4.9-4.8 0-2.7 2.2-4.9 4.9-4.9 2.7 0 4.9 2.2 4.9 4.9z"/><path class="c" d="m19.4 60.1c0 2.7-2.2 4.9-4.9 4.9-2.7 0-4.8-2.2-4.8-4.9 0-2.7 2.1-4.8 4.8-4.8 2.7 0 4.9 2.1 4.9 4.8z"/><path class="c" d="m19.4 75.1c0 2.7-2.2 4.9-4.9 4.9-2.7 0-4.8-2.2-4.8-4.9 0-2.7 2.1-4.8 4.8-4.8 2.7 0 4.9 2.1 4.9 4.8z"/><text style="transform:matrix(0,-1,1,0,18.5,96.039);paint-order:stroke fill markers;stroke:#444;stroke-width: NaN;stroke-linejoin: round;" ><tspan x="0" y="0" class="d">X
</tspan></text><path class="e" d="m46 47.1v-37.8c0-1.2 1.7-2.3 3.9-2.3h0.2c2.2 0 3.9 1.1 3.9 2.3v37.8c0 1.3-1.7 2.3-3.9 2.3h-0.2c-2.2 0-3.9-1-3.9-2.3z"/><path class="e" d="m22.6 92.4v-81.3h4v81.3z"/></svg>