<svg version="1.2" xmlns="http://www.w3.org/2000/svg" viewBox="0 0 124 106" width="124" height="106">
	<title>Dsus4-svg</title>
	<style>
		tspan { white-space:pre } 
		.s0 { fill: #444444 } 
		.s1 { fill: #000000;stroke: #444444 } 
		.s2 { fill: #444444;stroke: #444444 } 
		.s3 { fill: #ffffff;stroke: #444444 } 
		.t4 { font-size: 13px;fill: #444444;font-weight: 400;font-family: "LiberationSans", "Liberation Sans" } 
	</style>
	<g>
		<path class="s0" d="m22.6 92.4v-81.3h4v81.3z"/>
		<path class="s1" d="m26.6 92.4h80.3"/>
		<path class="s1" d="m26.6 76.1h80.3"/>
		<path class="s1" d="m26.6 59.9h80.3"/>
		<path class="s1" d="m26.6 43.6h80.3"/>
		<path class="s1" d="m26.6 27.4h80.3"/>
		<path class="s1" d="m26.6 11.1h80.3"/>
		<path class="s1" d="m26.6 92.4v-81.3"/>
		<path class="s1" d="m42.6 92.4v-81.3"/>
		<path class="s1" d="m58.7 92.4v-81.3"/>
		<path class="s1" d="m74.8 92.4v-81.3"/>
		<path class="s1" d="m90.9 92.4v-81.3"/>
		<path class="s1" d="m106.9 92.4v-81.3"/>
		<path class="s2" d="m71.6 25.6c0 2.7-2.2 4.9-4.9 4.9-2.7 0-4.9-2.2-4.9-4.9 0-2.7 2.2-4.8 4.9-4.8 2.7 0 4.9 2.1 4.9 4.8z"/>
		<path id="Layer copy" class="s2" d="m71.6 75.6c0 2.7-2.2 4.9-4.9 4.9-2.7 0-4.9-2.2-4.9-4.9 0-2.7 2.2-4.8 4.9-4.8 2.7 0 4.9 2.1 4.9 4.8z"/>
		<path class="s3" d="m19.4 59.9c0 2.7-2.2 4.9-4.9 4.9-2.7 0-4.8-2.2-4.8-4.9 0-2.7 2.1-4.9 4.8-4.9 2.7 0 4.9 2.2 4.9 4.9z"/>
		<text id="X
" style="transform: matrix(0,-1,1,0,18.5,96.039);paint-order:stroke fill markers;stroke: #444444;stroke-width: NaN;stroke-linejoin: round;" >
			<tspan x="0" y="0" class="t4">X
</tspan>
		</text>
		<path class="s0" d="m46.6 42.1v-27.6c0-3.8 1.7-6.9 3.9-6.9h0.2c2.2 0 3.9 3.1 3.9 6.9v27.6c0 3.8-1.7 6.9-3.9 6.9h-0.2c-2.2 0-3.9-3.1-3.9-6.9z"/>
	</g>
</svg>