<svg version="1.2" xmlns="http://www.w3.org/2000/svg" viewBox="0 0 124 106" width="124" height="106"><style>tspan{white-space:pre}.a{fill:#444}.b{stroke:#444}.c{fill:#444;stroke:#444}.d{fill:#fff;stroke:#444}.e{font-size: 13px;fill: #444444;font-weight: 400;font-family: "LiberationSans", "Liberation Sans"}</style><path class="a" d="m22.6 92.4v-81.3h4v81.3z"/><path class="b" d="m26.6 92.4h80.3"/><path class="b" d="m26.6 76.1h80.3"/><path class="b" d="m26.6 59.9h80.3"/><path class="b" d="m26.6 43.6h80.3"/><path class="b" d="m26.6 27.4h80.3"/><path class="b" d="m26.6 11.1h80.3"/><path class="b" d="m26.6 92.4v-81.3"/><path class="b" d="m42.6 92.4v-81.3"/><path class="b" d="m58.7 92.4v-81.3"/><path class="b" d="m74.8 92.4v-81.3"/><path class="b" d="m90.9 92.4v-81.3"/><path class="b" d="m106.9 92.4v-81.3"/><path class="c" d="m55.6 43.6c0 2.7-2.2 4.9-4.9 4.9-2.7 0-4.9-2.2-4.9-4.9 0-2.7 2.2-4.8 4.9-4.8 2.7 0 4.9 2.1 4.9 4.8z"/><path class="d" d="m19.4 59.9c0 2.7-2.2 4.9-4.9 4.9-2.7 0-4.8-2.2-4.8-4.9 0-2.7 2.1-4.9 4.8-4.9 2.7 0 4.9 2.2 4.9 4.9z"/><text style="transform:matrix(0,-1,1,0,19.5,79.789);paint-order:stroke fill markers;stroke:#444;stroke-width: NaN;stroke-linejoin: round;" ><tspan x="0" y="0" class="e">X
</tspan></text><text style="transform:matrix(0,-1,1,0,20.5,96.039);paint-order:stroke fill markers;stroke:#444;stroke-width: NaN;stroke-linejoin: round;" ><tspan x="0" y="0" class="e">X
</tspan></text><path class="a" d="m62.6 29.6v-17.6c0-2.4 1.7-4.4 3.9-4.4h0.2c2.2 0 3.9 2 3.9 4.4v17.6c0 2.4-1.7 4.4-3.9 4.4h-0.2c-2.2 0-3.9-2-3.9-4.4z"/></svg>