<svg version="1.2" xmlns="http://www.w3.org/2000/svg" viewBox="0 0 124 106" width="124" height="106"><style>.a{stroke:#444}.b{fill:#444;stroke:#444}.c{fill:#444}.d{fill:#fff;stroke:#444}</style><path class="a" d="m26.6 92.4h80.3"/><path class="a" d="m26.6 76.1h80.3"/><path class="a" d="m26.6 59.9h80.3"/><path class="a" d="m26.6 43.6h80.3"/><path class="a" d="m26.6 27.4h80.3"/><path class="a" d="m26.6 11.1h80.3"/><path class="a" d="m26.6 92.4v-81.3"/><path class="a" d="m42.6 92.4v-81.3"/><path class="a" d="m58.7 92.4v-81.3"/><path class="a" d="m74.8 92.4v-81.3"/><path class="a" d="m90.9 92.4v-81.3"/><path class="a" d="m106.9 92.4v-81.3"/><path class="b" d="m71.6 92.6c0 2.7-2.2 4.9-4.8 4.9-2.7 0-4.9-2.2-4.9-4.9 0-2.7 2.2-4.8 4.9-4.8 2.6 0 4.8 2.1 4.8 4.8z"/><path class="c" d="m61.6 60.9v-50.2c0-1.7 1.7-3.1 3.9-3.1h0.2c2.2 0 3.9 1.4 3.9 3.1v50.2c0 1.8-1.7 3.1-3.9 3.1h-0.2c-2.2 0-3.9-1.3-3.9-3.1z"/><path class="d" d="m19.4 76.1c0 2.7-2.2 4.9-4.9 4.9-2.7 0-4.8-2.2-4.8-4.9 0-2.7 2.1-4.8 4.8-4.8 2.7 0 4.9 2.1 4.9 4.8z"/><path class="c" d="m22.6 92.4v-81.3h4v81.3z"/></svg>